<svg xmlns="http://www.w3.org/2000/svg" xmlns:xlink="http://www.w3.org/1999/xlink" xml:space="preserve" version="1.1" style="shape-rendering:geometricPrecision;text-rendering:geometricPrecision;image-rendering:optimizeQuality;" viewBox="0 0 738 922.5" x="0px" y="0px" fill-rule="evenodd" clip-rule="evenodd"><defs><style type="text/css">
   
    .fil0 {fill:black}
   
  </style></defs><g><path class="fil0" d="M369 0c203,0 369,165 369,369 0,203 -166,369 -369,369 -204,0 -369,-166 -369,-369 0,-204 165,-369 369,-369zm-197 305l394 0c35,0 64,29 64,64 0,35 -29,64 -64,64l-394 0c-36,0 -65,-29 -65,-64 0,-36 29,-64 65,-64z"/></g><text x="0" y="753" fill="#000000" font-size="5px" font-weight="bold" font-family="'Helvetica Neue', Helvetica, Arial-Unicode, Arial, Sans-serif">Created by Manaqib S</text><text x="0" y="758" fill="#000000" font-size="5px" font-weight="bold" font-family="'Helvetica Neue', Helvetica, Arial-Unicode, Arial, Sans-serif">from the Noun Project</text></svg>